<?xml version="1.0" standalone="no"?>
<!DOCTYPE svg PUBLIC "-//W3C//DTD SVG 20010904//EN"
 "http://www.w3.org/TR/2001/REC-SVG-20010904/DTD/svg10.dtd">
<svg version="1.0" xmlns="http://www.w3.org/2000/svg"
 width="225.000000pt" height="225.000000pt" viewBox="0 0 225.000000 225.000000"
 preserveAspectRatio="xMidYMid meet">

<g transform="translate(0.000000,225.000000) scale(0.100000,-0.100000)"
fill="#000000" stroke="none">
<path d="M879 2138 c-273 -351 -426 -694 -460 -1029 -9 -99 0 -279 17 -324 4
-9 -19 -25 -70 -49 -310 -143 -359 -346 -120 -505 195 -131 503 -201 879 -201
376 0 684 70 879 201 200 133 200 305 1 437 -38 26 -89 56 -112 66 -43 19 -43
19 -35 60 4 23 6 93 6 156 -1 130 -24 214 -86 317 -60 101 -191 219 -314 281
l-41 21 -6 -98 c-13 -191 -62 -317 -146 -376 -41 -29 -47 -30 -151 -30 -64 0
-113 4 -120 11 -7 7 0 32 24 86 53 113 79 219 80 318 0 98 -7 124 -80 281 -80
172 -99 278 -74 409 6 29 8 55 6 57 -2 3 -37 -37 -77 -89z m-123 -909 c-18
-174 20 -343 97 -427 63 -68 107 -87 202 -87 69 0 89 5 148 33 101 47 187 134
242 244 24 48 47 109 51 135 l7 48 49 -55 c27 -30 70 -97 96 -149 l47 -94 0
-106 c0 -97 -3 -111 -29 -165 -42 -86 -134 -172 -237 -224 -109 -55 -181 -73
-309 -79 -170 -8 -291 30 -392 125 -92 86 -128 179 -129 333 0 115 21 222 68
349 31 83 89 210 96 210 1 0 -2 -41 -7 -91z"/>
</g>
</svg>
